<?xml version="1.0" encoding="UTF-8"?>
<svg width="976px" height="263px" viewBox="0 0 976 263" version="1.1" xmlns="http://www.w3.org/2000/svg" xmlns:xlink="http://www.w3.org/1999/xlink">
    <title>Powered by Concordium light@1x</title>
    <g id="Powered-by-Concordium-light" stroke="none" stroke-width="1" fill="none" fill-rule="evenodd">
        <g id="Group" transform="translate(88, 57.22)" fill="#FFFFFF" fill-rule="nonzero">
            <g id="Concordium-Logo-White" transform="translate(0, 16.78)">
                <path d="M138.150004,103.520779 L112.340365,103.520779 C118.902138,94.9834192 122.839201,84.3293586 122.839201,72.7298384 C122.839201,61.1303182 118.888027,50.4339237 112.312143,41.8965639 L138.135892,41.8965639 C142.510407,51.2523813 144.96578,61.7088831 144.96578,72.7298384 C144.96578,83.7507938 142.510407,94.1790729 138.150004,103.520779 Z M72.4758343,103.520779 C55.5140055,103.520779 41.7554505,89.7198899 41.7554505,72.7157271 C41.7554505,55.7115642 55.5140055,41.8965639 72.4758343,41.8965639 C89.4376632,41.8965639 103.196218,55.6974529 103.196218,72.7157271 C103.196218,89.7340013 89.4517745,103.520779 72.4758343,103.520779 Z M22.098356,72.7298384 C22.098356,100.642066 44.6482749,123.262541 72.4758343,123.262541 C79.9407324,123.262541 86.9964016,121.583292 93.3747266,118.662245 L93.3747266,142.369294 C86.7565089,144.358992 79.757285,145.445566 72.4899457,145.445566 C32.4560785,145.445566 -1.0026709e-14,112.890708 -1.0026709e-14,72.7298384 C-1.0026709e-14,32.5689692 32.4419671,0 72.4758343,0 C79.7431736,0 86.7423975,1.08657306 93.3606153,3.07627178 L93.3606153,26.7833204 C86.9822903,23.8622733 79.926621,22.1830241 72.461723,22.1830241 C44.6482749,22.1830241 22.0842447,44.8034996 22.0842447,72.7157271 L22.098356,72.7298384 Z" id="Shape"></path>
                <path d="M216.496155,89.4235518 C222.521696,89.4235518 227.418331,86.9822903 230.353489,83.8072391 L230.353489,101.488746 C226.120087,103.450222 221.138785,104.423905 216.171594,104.423905 C198.250194,104.423905 183.814295,90.1573414 183.814295,72.7298384 C183.814295,55.3023354 198.236083,41.0357722 216.171594,41.0357722 C221.138785,41.0357722 226.120087,42.0941226 230.353489,43.9709306 L230.353489,61.6524377 C227.418331,58.4773866 222.535808,56.036125 216.496155,56.036125 C206.801665,56.036125 199.78833,63.1200169 199.78833,72.7439498 C199.78833,82.3678826 206.801665,89.4517745 216.496155,89.4517745 L216.496155,89.4235518 Z M270.838919,41.0216609 C288.520426,41.0216609 302.617653,55.2882241 302.617653,72.7157271 C302.617653,90.1432301 288.520426,104.409793 270.838919,104.409793 C253.157412,104.409793 239.060185,90.1432301 239.060185,72.7157271 C239.060185,55.2882241 253.24208,41.0216609 270.838919,41.0216609 Z M270.838919,55.8526776 C262.118112,55.8526776 255.03422,62.7813448 255.03422,72.7157271 C255.03422,82.6501094 262.118112,89.5787765 270.838919,89.5787765 C279.559726,89.5787765 286.643618,82.6501094 286.643618,72.7157271 C286.643618,62.7813448 279.559726,55.8526776 270.838919,55.8526776 L270.838919,55.8526776 Z M328.370846,41.9953433 L354.448599,77.8522543 L354.448599,41.9953433 L369.773513,41.9953433 L369.773513,103.436111 L356.170183,103.436111 L329.203415,67.0147463 L329.203415,103.436111 L313.878501,103.436111 L313.878501,41.9953433 L328.384957,41.9953433 L328.370846,41.9953433 Z M413.687998,89.4235518 C419.71354,89.4235518 424.610174,86.9822903 427.545333,83.8072391 L427.545333,101.488746 C423.311931,103.450222 418.330629,104.423905 413.363438,104.423905 C395.442038,104.423905 381.006138,90.1573414 381.006138,72.7298384 C381.006138,55.3023354 395.427926,41.0357722 413.363438,41.0357722 C418.330629,41.0357722 423.311931,42.0941226 427.545333,43.9709306 L427.545333,61.6524377 C424.610174,58.4773866 419.727651,56.036125 413.687998,56.036125 C403.993509,56.036125 396.980174,63.1200169 396.980174,72.7439498 C396.980174,82.3678826 403.993509,89.4517745 413.687998,89.4517745 L413.687998,89.4235518 Z M468.030763,41.0216609 C485.71227,41.0216609 499.809497,55.2882241 499.809497,72.7157271 C499.809497,90.1432301 485.71227,104.409793 468.030763,104.409793 C450.349256,104.409793 436.252029,90.1432301 436.252029,72.7157271 C436.252029,55.2882241 450.433924,41.0216609 468.030763,41.0216609 Z M468.030763,55.8526776 C459.309956,55.8526776 452.226064,62.7813448 452.226064,72.7157271 C452.226064,82.6501094 459.309956,89.5787765 468.030763,89.5787765 C476.75157,89.5787765 483.835462,82.6501094 483.835462,72.7157271 C483.835462,62.7813448 476.75157,55.8526776 468.030763,55.8526776 L468.030763,55.8526776 Z M526.860933,81.4365343 L526.860933,103.436111 L511.056234,103.436111 L511.056234,41.9953433 L531.348338,41.9953433 C545.939462,41.9953433 555.958513,49.1639032 555.958513,61.7229944 C555.958513,69.9499047 550.991322,75.9895576 543.328865,79.0799407 L562.88718,103.450222 L543.653426,103.450222 L526.860933,81.4506456 L526.860933,81.4365343 Z M526.860933,69.5406759 L531.26367,69.5406759 C536.555422,69.5406759 539.744585,66.6901856 539.744585,62.2027799 C539.744585,57.7153743 536.569534,54.949552 531.26367,54.949552 L526.860933,54.949552 L526.860933,69.5406759 L526.860933,69.5406759 Z M592.210541,41.9953433 C609.80738,41.9953433 623.989275,55.1894447 623.989275,72.7157271 C623.989275,90.2420095 609.80738,103.436111 592.210541,103.436111 L569.971072,103.436111 L569.971072,41.9953433 L592.210541,41.9953433 Z M591.152191,55.118888 L585.930996,55.118888 L585.930996,90.3266775 L590.982855,90.3266775 C601.326466,90.3266775 608.01524,82.1844352 608.01524,72.7298384 C608.01524,63.2752417 601.326466,55.1329994 591.152191,55.1329994 L591.152191,55.118888 Z M651.210047,103.436111 L635.236012,103.436111 L635.236012,41.9953433 L651.210047,41.9953433 L651.210047,103.436111 Z M700.430396,78.7412686 L700.430396,41.9953433 L716.404431,41.9953433 L716.404431,78.6707119 C716.404431,95.0539759 705.242362,104.423905 690.56657,104.423905 C675.890778,104.423905 664.72871,95.0539759 664.72871,78.6707119 L664.72871,41.9953433 L680.702745,41.9953433 L680.702745,78.7412686 C680.702745,86.4883934 684.611585,90.3125661 690.56657,90.3125661 C696.521555,90.3125661 700.430396,86.4883934 700.430396,78.7412686 Z" id="Shape"></path>
                <polygon id="Path" points="745.544345 62.372116 745.078671 62.372116 745.078671 103.436111 730.374656 103.436111 730.374656 41.9953433 753.813589 41.9953433 765.427221 76.8785719 778.254427 41.9953433 800 41.9953433 800 103.436111 785.281874 103.436111 785.281874 62.372116 784.830311 62.372116 769.999294 103.436111 760.36125 103.436111"></polygon>
            </g>
            <g id="Powered-by" transform="translate(184.653, 0)">
                <path d="M-2.84217094e-14,34.78 L-2.84217094e-14,1.974 L12.878,1.974 C15.7293333,1.974 17.907,2.7965 19.411,4.4415 C20.915,6.0865 21.667,8.319 21.667,11.139 C21.667,13.9903333 20.915,16.2385 19.411,17.8835 C17.907,19.5285 15.7293333,20.351 12.878,20.351 L2.82,20.351 L2.82,34.78 L-2.84217094e-14,34.78 Z M2.82,17.86 L12.878,17.86 C14.758,17.86 16.1915,17.3351667 17.1785,16.2855 C18.1655,15.2358333 18.659,13.8963333 18.659,12.267 L18.659,10.011 C18.659,8.413 18.1655,7.08916667 17.1785,6.0395 C16.1915,4.98983333 14.758,4.465 12.878,4.465 L2.82,4.465 L2.82,17.86 Z" id="Shape"></path>
                <path d="M35.955,35.344 C34.357,35.344 32.9156667,35.062 31.631,34.498 C30.3463333,33.934 29.2496667,33.1115 28.341,32.0305 C27.4323333,30.9495 26.7273333,29.6256667 26.226,28.059 C25.7246667,26.4923333 25.474,24.722 25.474,22.748 C25.474,20.774 25.7246667,19.0115 26.226,17.4605 C26.7273333,15.9095 27.4323333,14.5935 28.341,13.5125 C29.2496667,12.4315 30.3463333,11.6011667 31.631,11.0215 C32.9156667,10.4418333 34.357,10.152 35.955,10.152 C37.553,10.152 38.9943333,10.4418333 40.279,11.0215 C41.5636667,11.6011667 42.6603333,12.4315 43.569,13.5125 C44.4776667,14.5935 45.1826667,15.9095 45.684,17.4605 C46.1853333,19.0115 46.436,20.774 46.436,22.748 C46.436,24.722 46.1853333,26.4923333 45.684,28.059 C45.1826667,29.6256667 44.4776667,30.9495 43.569,32.0305 C42.6603333,33.1115 41.5636667,33.934 40.279,34.498 C38.9943333,35.062 37.553,35.344 35.955,35.344 Z M35.955,32.947 C38.305,32.947 40.1615,32.2106667 41.5245,30.738 C42.8875,29.2653333 43.569,27.1033333 43.569,24.252 L43.569,21.244 C43.569,18.424 42.8875,16.2698333 41.5245,14.7815 C40.1615,13.2931667 38.305,12.549 35.955,12.549 C33.605,12.549 31.7485,13.2853333 30.3855,14.758 C29.0225,16.2306667 28.341,18.3926667 28.341,21.244 L28.341,24.252 C28.341,27.072 29.0225,29.2261667 30.3855,30.7145 C31.7485,32.2028333 33.605,32.947 35.955,32.947 Z" id="Shape"></path>
                <polygon id="Path" points="50.29 10.716 52.922 10.716 58.703 32.383 58.797 32.383 65.189 10.716 67.68 10.716 74.119 32.383 74.213 32.383 79.947 10.716 82.532 10.716 75.764 34.78 72.474 34.78 66.411 14.523 66.317 14.523 60.301 34.78 57.058 34.78"></polygon>
                <path d="M96.914,35.344 C95.316,35.344 93.8668333,35.062 92.5665,34.498 C91.2661667,33.934 90.1538333,33.1115 89.2295,32.0305 C88.3051667,30.9495 87.6001667,29.6256667 87.1145,28.059 C86.6288333,26.4923333 86.386,24.722 86.386,22.748 C86.386,20.774 86.6288333,19.0115 87.1145,17.4605 C87.6001667,15.9095 88.3051667,14.5935 89.2295,13.5125 C90.1538333,12.4315 91.2583333,11.6011667 92.543,11.0215 C93.8276667,10.4418333 95.269,10.152 96.867,10.152 C98.4023333,10.152 99.7966667,10.4418333 101.05,11.0215 C102.303333,11.6011667 103.368667,12.408 104.246,13.442 C105.123333,14.476 105.804833,15.7215 106.2905,17.1785 C106.776167,18.6355 107.019,20.2413333 107.019,21.996 L107.019,23.265 L89.206,23.265 L89.206,24.44 C89.206,25.6933333 89.3861667,26.8448333 89.7465,27.8945 C90.1068333,28.9441667 90.6238333,29.845 91.2975,30.597 C91.9711667,31.349 92.7936667,31.9365 93.765,32.3595 C94.7363333,32.7825 95.833,32.994 97.055,32.994 C100.564333,32.994 102.992667,31.3803333 104.34,28.153 L106.314,29.469 C105.562,31.255 104.379167,32.6806667 102.7655,33.746 C101.151833,34.8113333 99.2013333,35.344 96.914,35.344 Z M96.867,12.408 C95.7076667,12.408 94.658,12.6195 93.718,13.0425 C92.778,13.4655 91.9711667,14.053 91.2975,14.805 C90.6238333,15.557 90.1068333,16.4578333 89.7465,17.5075 C89.3861667,18.5571667 89.206,19.7086667 89.206,20.962 L89.206,21.197 L104.105,21.197 L104.105,20.821 C104.105,19.5676667 103.932667,18.4161667 103.588,17.3665 C103.243333,16.3168333 102.749833,15.4316667 102.1075,14.711 C101.465167,13.9903333 100.6975,13.4263333 99.8045,13.019 C98.9115,12.6116667 97.9323333,12.408 96.867,12.408 Z" id="Shape"></path>
                <path d="M113.834,34.78 L113.834,10.716 L116.513,10.716 L116.513,15.04 L116.701,15.04 C117.171,13.912 117.97,12.9093333 119.098,12.032 C120.226,11.1546667 121.824,10.716 123.892,10.716 L125.49,10.716 L125.49,13.348 L123.375,13.348 C121.369667,13.348 119.724667,13.7866667 118.44,14.664 C117.155333,15.5413333 116.513,16.7633333 116.513,18.33 L116.513,34.78 L113.834,34.78 Z" id="Path"></path>
                <path d="M139.073,35.344 C137.475,35.344 136.025833,35.062 134.7255,34.498 C133.425167,33.934 132.312833,33.1115 131.3885,32.0305 C130.464167,30.9495 129.759167,29.6256667 129.2735,28.059 C128.787833,26.4923333 128.545,24.722 128.545,22.748 C128.545,20.774 128.787833,19.0115 129.2735,17.4605 C129.759167,15.9095 130.464167,14.5935 131.3885,13.5125 C132.312833,12.4315 133.417333,11.6011667 134.702,11.0215 C135.986667,10.4418333 137.428,10.152 139.026,10.152 C140.561333,10.152 141.955667,10.4418333 143.209,11.0215 C144.462333,11.6011667 145.527667,12.408 146.405,13.442 C147.282333,14.476 147.963833,15.7215 148.4495,17.1785 C148.935167,18.6355 149.178,20.2413333 149.178,21.996 L149.178,23.265 L131.365,23.265 L131.365,24.44 C131.365,25.6933333 131.545167,26.8448333 131.9055,27.8945 C132.265833,28.9441667 132.782833,29.845 133.4565,30.597 C134.130167,31.349 134.952667,31.9365 135.924,32.3595 C136.895333,32.7825 137.992,32.994 139.214,32.994 C142.723333,32.994 145.151667,31.3803333 146.499,28.153 L148.473,29.469 C147.721,31.255 146.538167,32.6806667 144.9245,33.746 C143.310833,34.8113333 141.360333,35.344 139.073,35.344 Z M139.026,12.408 C137.866667,12.408 136.817,12.6195 135.877,13.0425 C134.937,13.4655 134.130167,14.053 133.4565,14.805 C132.782833,15.557 132.265833,16.4578333 131.9055,17.5075 C131.545167,18.5571667 131.365,19.7086667 131.365,20.962 L131.365,21.197 L146.264,21.197 L146.264,20.821 C146.264,19.5676667 146.091667,18.4161667 145.747,17.3665 C145.402333,16.3168333 144.908833,15.4316667 144.2665,14.711 C143.624167,13.9903333 142.8565,13.4263333 141.9635,13.019 C141.0705,12.6116667 140.091333,12.408 139.026,12.408 Z" id="Shape"></path>
                <path d="M171.55,30.926 L171.409,30.926 C170.782333,32.2733333 169.865833,33.3465 168.6595,34.1455 C167.453167,34.9445 165.925667,35.344 164.077,35.344 C160.975,35.344 158.546667,34.2473333 156.792,32.054 C155.037333,29.8606667 154.16,26.7586667 154.16,22.748 C154.16,18.7373333 155.037333,15.6353333 156.792,13.442 C158.546667,11.2486667 160.975,10.152 164.077,10.152 C165.925667,10.152 167.461,10.5515 168.683,11.3505 C169.905,12.1495 170.813667,13.2226667 171.409,14.57 L171.55,14.57 L171.55,0 L174.229,0 L174.229,34.78 L171.55,34.78 L171.55,30.926 Z M164.688,32.947 C165.628,32.947 166.513167,32.8216667 167.3435,32.571 C168.173833,32.3203333 168.902333,31.9521667 169.529,31.4665 C170.155667,30.9808333 170.649167,30.4011667 171.0095,29.7275 C171.369833,29.0538333 171.55,28.294 171.55,27.448 L171.55,17.907 C171.55,17.1236667 171.369833,16.403 171.0095,15.745 C170.649167,15.087 170.155667,14.523 169.529,14.053 C168.902333,13.583 168.173833,13.2148333 167.3435,12.9485 C166.513167,12.6821667 165.628,12.549 164.688,12.549 C162.275333,12.549 160.395333,13.3166667 159.048,14.852 C157.700667,16.3873333 157.027,18.4553333 157.027,21.056 L157.027,24.44 C157.027,27.0406667 157.700667,29.1086667 159.048,30.644 C160.395333,32.1793333 162.275333,32.947 164.688,32.947 Z" id="Shape"></path>
                <path d="M194.063,0 L196.742,0 L196.742,14.57 L196.883,14.57 C197.478333,13.2226667 198.387,12.1495 199.609,11.3505 C200.831,10.5515 202.366333,10.152 204.215,10.152 C207.317,10.152 209.745333,11.2486667 211.5,13.442 C213.254667,15.6353333 214.132,18.7373333 214.132,22.748 C214.132,26.7586667 213.254667,29.8606667 211.5,32.054 C209.745333,34.2473333 207.317,35.344 204.215,35.344 C202.366333,35.344 200.846667,34.9445 199.656,34.1455 C198.465333,33.3465 197.541,32.2733333 196.883,30.926 L196.742,30.926 L196.742,34.78 L194.063,34.78 L194.063,0 Z M203.604,32.947 C206.016667,32.947 207.896667,32.1793333 209.244,30.644 C210.591333,29.1086667 211.265,27.0406667 211.265,24.44 L211.265,21.056 C211.265,18.4553333 210.591333,16.3873333 209.244,14.852 C207.896667,13.3166667 206.016667,12.549 203.604,12.549 C202.664,12.549 201.778833,12.6821667 200.9485,12.9485 C200.118167,13.2148333 199.389667,13.583 198.763,14.053 C198.136333,14.523 197.642833,15.087 197.2825,15.745 C196.922167,16.403 196.742,17.1236667 196.742,17.907 L196.742,27.448 C196.742,28.294 196.922167,29.0538333 197.2825,29.7275 C197.642833,30.4011667 198.136333,30.9808333 198.763,31.4665 C199.389667,31.9521667 200.118167,32.3203333 200.9485,32.571 C201.778833,32.8216667 202.664,32.947 203.604,32.947 Z" id="Shape"></path>
                <path d="M235.188,10.716 L237.914,10.716 L226.775,41.548 C226.399,42.5506667 225.944667,43.24 225.412,43.616 C224.879333,43.992 224.002,44.18 222.78,44.18 L220.054,44.18 L220.054,41.83 L224.096,41.83 L226.399,35.485 L217.469,10.716 L220.289,10.716 L227.668,31.913 L227.856,31.913 L235.188,10.716 Z" id="Path"></path>
            </g>
        </g>
    </g>
</svg>